<svg xmlns="http://www.w3.org/2000/svg" width="1853.292" height="496.674" viewBox="0 0 1853.292 496.674">
  <g id="background" transform="translate(-33.04 -547.203)">
    <path id="Path_76" data-name="Path 76" d="M34,3395.826s165.2-137.7,308.257,18.717,292.79,64.173,292.79,64.173,113.64-76.206,188.508,80.216" transform="translate(0 -2517)" fill="none" stroke="#7600ff" stroke-width="3"/>
    <path id="Path_77" data-name="Path 77" d="M1886,3215s-210.817-47.795-212.154,150.072-191.182,123-191.182,123-151.073-74.866-216.583,72.2" transform="translate(0 -2517)" fill="none" stroke="#7600ff" stroke-width="3"/>
    <g id="사람" transform="translate(575 -1386.305)">
      <path id="Path_87" data-name="Path 87" d="M6.695,0A139.288,139.288,0,0,0,2.2,14.866,109.028,109.028,0,0,0,0,29.121H83.195s-2.911-3.2-10.526-7.3-12.708-7.274-15.969-9.1C52.169,10.179,51.009,0,51.009,0Z" transform="matrix(0.995, -0.105, 0.105, 0.995, -200.673, 2367.132)"/>
      <path id="Path_86" data-name="Path 86" d="M-167.374,2175.591s46.189.3,73.661-17.842,51.348-63.529,51.348-63.529,14.143,28.609,19.147,42.643a63.49,63.49,0,0,0,14.8,23.063l49.173-2.176L-23.218,2021.98Z" transform="translate(-187.616 209.2)" fill="#843cd8" stroke="#000" stroke-width="3"/>
      <path id="Path_85" data-name="Path 85" d="M-73.631,2108.7a139.288,139.288,0,0,0-4.49,14.866,109.028,109.028,0,0,0-2.2,14.255H2.87s-2.911-3.2-10.526-7.3-12.708-7.274-15.969-9.1c-4.53-2.537-5.69-12.717-5.69-12.717Z" transform="translate(-137.906 258.72)"/>
      <path id="Path_84" data-name="Path 84" d="M-12.793,1922.731c-9.27-4.892-34.246-7.147-71.325,62.89s-5.15,97.846-5.15,97.846,41.971,33.216,76.474-50.983S-3.523,1927.624-12.793,1922.731Z" transform="translate(-150.31 152.889)" fill="#b999f9"/>
      <path id="Path_82" data-name="Path 82" d="M-224.917,2072.964s-19.464,53.363-10.64,79.1,30.446,49.3,73.258,51.706c37.2,2.093,65.96-7.371,95.886-28.172,42.01-29.2,61.379-90.624,61.379-90.624s-3.677,26.587,2.263,52.044,21.5,49.782,21.5,49.782H65.962s17.834-109.7-3.677-161.959-82.366-47.066-82.366-47.066l-83.1,79.425Z" transform="translate(-227.863 183.876)" fill="#843cd8" stroke="#000" stroke-width="3"/>
      <path id="hair" d="M151.1,1922.017s-14.693-48.429,30.548-88.249c6.788-2.263,3.438-48.912,56.614-47.215s47.475,55.473,47.475,55.473,26.588,33.6,13.011,91.3-71.278,76.37-71.278,76.37-79.764,18.1-93.341-21.5S151.1,1922.017,151.1,1922.017Z" transform="translate(-605 147)"/>
      <path id="body" d="M190.893,1874.95s-125.287,88.642-37.774,211.455,203.621-41.051,203.621-41.051l2.731-93.575s-23.42-56.566-98.813-76.829S190.893,1874.95,190.893,1874.95Z" transform="translate(-595.762 189.221)" fill="#b999f9"/>
      <path id="head" d="M227.852,1889.163s29.149-.885,32.108-29.308-1.154-50.83-33.942-52.219c-15.705-.665-29.035,10-34.178,22.289-5.393,12.885-1.89,27.52-1.89,27.52s-12.611-11.732-17.522,0,13.562,13.011,13.562,13.011v39.033s6.066,30.264,30,28.523S227.852,1901,227.852,1901Z" transform="translate(-592.617 157.384)" fill="#fff"/>
      <path id="another-arm-line" d="M234.284,1915.654s17.209,46.846,8.6,75.527" transform="translate(-542.679 211.323)" fill="none" stroke="#000" stroke-linecap="round" stroke-width="3"/>
      <path id="Path_83" data-name="Path 83" d="M-138.952,2016.794s6.272-16.176,32.117-26.155,33.062,4.114,33.062,4.114l-17.979,15.388-22.092,1.524Z" transform="translate(-171.386 189.262)" fill="#843cd8" stroke="#000" stroke-width="3"/>
      <path id="book" d="M-106.931,1998.76c1.662-16.614,0-34.783,0-34.783l57.209,13.666,32.126-28.9,5.617-2.011s-5.879,22.539-4.527,40.434A175.444,175.444,0,0,0-11.1,2019.1l-38.623,29.1-63.857-17.764A166.942,166.942,0,0,0-106.931,1998.76Z" transform="translate(-156.896 166.231)" fill="#fff" stroke="#000" stroke-linecap="round" stroke-width="2"/>
      <path id="arm-line" d="M167.437,1941.063s14.143,24.891,21.5,45.256,7.92,36.2,7.92,36.2,39.032-45.643,113.138-47.34" transform="translate(-574.569 224.262)" fill="none" stroke="#000" stroke-linecap="round" stroke-width="3"/>
      <path id="neck-line" d="M-200.33,1920.226s8.715,33.87,31.691,29.116,10.87-37.464,10.87-37.464" transform="translate(-206.436 146.325)" fill="none" stroke="#000" stroke-linecap="round" stroke-width="3"/>
      <path id="Path_80" data-name="Path 80" d="M-72.561,1966.813s-2.461,16.994,0,26.6" transform="translate(-134.097 177.696)" fill="none" stroke="#000" stroke-width="2"/>
      <path id="hand" d="M281.358,1999.6c-6.4-.906-14.827-6.119-18.8-13.647-4.624-8.762-3.862-20.21-3.862-20.21l19.47-17.816s13.609-23.906,20.46-22.613c3.713.7.256,7.3-1.8,14.39a44.659,44.659,0,0,0-1.441,11.231,83.579,83.579,0,0,0,13.647-9.921,102.052,102.052,0,0,0,11.226-11.878c2.882-3.649,12.861-7.4,9.193,1.525s-21.749,27.545-21.749,27.545,14.832-17.137,17.714-19.57,14.054-18.2,14.735-9.5-24.921,36.608-24.921,36.608,15.447-19.793,20.152-22.877,4.429,4.358,0,10.982-13.288,16.692-13.288,16.692a58.689,58.689,0,0,0,11.957-6.413c4.908-3.689,11.379-3.6,9.166,0-2.642,4.3-27.621,17.271-46.162,26.484A121.9,121.9,0,0,0,281.358,1999.6Z" transform="translate(-522.48 235.677)" fill="#fff" stroke="#000" stroke-linecap="round" stroke-width="3"/>
      <path id="Path_79" data-name="Path 79" d="M-73.626,1962.825" transform="translate(-134.081 175.419)" fill="none" stroke="#707070" stroke-width="1"/>
      <path id="Path_78" data-name="Path 78" d="M-109.959,1963.65l8.565-2.115,48.516,11.67,1.167,4.734-1.167-4.734L-21,1946.07h6.543l-37.249,31.869Z" transform="translate(-154.829 165.851)" fill="#fff" stroke="#000" stroke-width="2"/>
      <path id="Path_81" data-name="Path 81" d="M2.779,52.368c1.849,11.916,10.725,10.675,14.9,11.2s-.711-7.221-4.057-9.614-2.036-10.4-2.036-10.4A28.983,28.983,0,0,1,22.2,62.729c1.534,12.722,4.934,9.718,6.538,6.951s1.795-9.057,0-16.372-7.178-14.186-7.178-14.186,12.961,12.856,12.562,24.6,1.01,10.824,3.054,11.988,5.035-7.264,5.982-15.355S31.126,35.8,31.126,35.8s7.645,4.6,10.42,8.411,2.324,11.355,5.9,14.326,5.807-7.907,4.81-13.116-11.57-17.243-11.57-17.243,6.948-1.554,10.233,1.705c3.247,3.226,6.917,11.22,7.894,7.311,1.77-7.082-4.878-16.958-11.367-20.761S40.96,14.1,37.172,12.3,30.809-2.656,16.251.481,0,12.3,0,12.3.929,40.452,2.779,52.368Z" transform="translate(-164.827 2059.198) rotate(41)" fill="#fff" stroke="#000" stroke-width="2"/>
      <g id="Ellipse_13" data-name="Ellipse 13" transform="translate(-395 1992.305)" fill="#fff" stroke="#000" stroke-width="2">
        <circle cx="15" cy="15" r="15" stroke="none"/>
        <circle cx="15" cy="15" r="14" fill="none"/>
      </g>
      <g id="Ellipse_14" data-name="Ellipse 14" transform="translate(-361 1989.305)" fill="#fff" stroke="#000" stroke-width="2">
        <ellipse cx="14.5" cy="14" rx="14.5" ry="14" stroke="none"/>
        <ellipse cx="14.5" cy="14" rx="13.5" ry="13" fill="none"/>
      </g>
      <path id="Path_88" data-name="Path 88" d="M-174.489,1877.253a7.488,7.488,0,0,0,3.633.7,5.484,5.484,0,0,0,2.855-1.4" transform="translate(-191.679 127.727)" fill="none" stroke="#000" stroke-width="2"/>
      <path id="Path_89" data-name="Path 89" d="M-188.808,1881.529l-9.67,3.333" transform="translate(-205.378 128.994)" fill="none" stroke="#000" stroke-width="2"/>
      <path id="Path_90" data-name="Path 90" d="M-153,1876.275h3.46" transform="translate(-180.158 125.994)" fill="none" stroke="#000" stroke-width="2"/>
    </g>
    <g id="Group_6" data-name="Group 6" transform="translate(1 7)">
      <path id="Path_103" data-name="Path 103" d="M-388.669,3187.931s-.91,7.691-.91,13.288a39.788,39.788,0,0,0,.91,9.1l74.448,36.951,68.26-28.942s-.518-4.258-1.064-9.856,1.9-12.376,1.9-12.376Z" transform="translate(867.78 -2220.91)" fill="#fff" stroke="#000" stroke-width="2"/>
      <path id="Path_101" data-name="Path 101" d="M-386.63,3189.976l72.348,34.713,68.75-28.284-43.966-17.083Z" transform="translate(868.106 -2221.863)" fill="#686868" stroke="#000" stroke-width="2"/>
      <path id="Path_102" data-name="Path 102" d="M-395.406,3159.4a57.87,57.87,0,0,0-1.221,11.062,62.794,62.794,0,0,0,1.221,11.342l35.744,38.505,105.855-29.544a40.9,40.9,0,0,1-.7-11.342,78.832,78.832,0,0,1,1.862-10.728Z" transform="translate(867 -2224.066)" fill="#fff" stroke="#000" stroke-width="2"/>
      <path id="Path_100" data-name="Path 100" d="M-394.978,3161.232l34.854,38.085,106.7-29.964-36.265-22.683Z" transform="translate(867.182 -2225.475)" stroke="#000" stroke-width="2"/>
      <g id="Group_5" data-name="Group 5" transform="translate(471.594 887.51)">
        <path id="Path_92" data-name="Path 92" d="M-395.528,3142.314a22.922,22.922,0,0,1,1.077,7.954c-.35,3.666-.617,6.472-.617,6.472l68.33,28.424,75.051-37.525,1.184-12.283Z" transform="translate(395.528 -3114.237)" fill="#fff" stroke="#000" stroke-width="2"/>
        <path id="Path_91" data-name="Path 91" d="M-394.978,3143.719l67.677,28.3,75.06-35.377-67.985-20.3Z" transform="translate(395.589 -3116.34)" fill="#e1e1e1" stroke="#000" stroke-width="2"/>
        <path id="Path_93" data-name="Path 93" d="M-334.035,3166.474v14.846" transform="translate(402.331 -3110.794)" fill="none" stroke="#000" stroke-width="2"/>
      </g>
      <path id="Path_105" data-name="Path 105" d="M-363.6,3193.613c.083.4,0,21.871,0,21.871" transform="translate(870.654 -2220.282)" fill="none" stroke="#000" stroke-width="2"/>
      <path id="Path_104" data-name="Path 104" d="M-321.236,3220.17v23.106" transform="translate(875.34 -2217.344)" fill="none" stroke="#000" stroke-width="2"/>
    </g>
    <g id="사람-2" data-name="사람" transform="translate(-411.346 904.203)">
      <path id="Path_106" data-name="Path 106" d="M325.906,168.313s-11.838-76.737-9.982-107.18S304.131,18.617,287.478,7.121c-12.46-8.6-33.27-9.8-48.251-6.842-34.517,6.818-39.221,43.6-36.451,67.7s0,79.03,0,79.03Z" transform="translate(1830 -352)"/>
      <path id="Path_87-2" data-name="Path 87" d="M6.695,29.121A139.288,139.288,0,0,1,2.2,14.255,109.028,109.028,0,0,1,0,0H83.195S80.284,3.2,72.669,7.3,59.961,14.577,56.7,16.4c-4.53,2.537-5.69,12.717-5.69,12.717Z" transform="translate(1858.056 82.25) rotate(-141)"/>
      <path id="Path_86-2" data-name="Path 86" d="M42.038,2169.282s-47.477,6.606-74.949-11.533-51.348-63.529-51.348-63.529-17.271-15.174-22.276-1.14-56.419,39.556-56.419,39.556l-32.767-29.958,92.314-80.7Z" transform="translate(2029.35 -2076.308)" fill="#fff" stroke="#000" stroke-width="3"/>
      <path id="Path_85-2" data-name="Path 85" d="M-3.825,2108.7a139.288,139.288,0,0,1,4.49,14.866,109.028,109.028,0,0,1,2.2,14.255H-80.325s2.911-3.2,10.526-7.3,12.708-7.274,15.969-9.1c4.53-2.537,5.69-12.717,5.69-12.717Z" transform="translate(1950.472 -2026.788)"/>
      <path id="Path_82-2" data-name="Path 82" d="M64.144,2065.767s-2.831,56.086-11.656,81.825S18.41,2196.276-9.583,2198.1c-37.2,2.093-59.029-1.7-88.955-22.5-42.01-29.2-61.379-90.624-61.379-90.624s2.418,24.894,3.586,51.914a171.154,171.154,0,0,1-5.849,50.457h-47.236s-39.33-110.247-17.82-162.5,82.366-47.066,82.366-47.066l83.1,79.425Z" transform="translate(2107.923 -2101.632)" fill="#fff" stroke="#000" stroke-width="3"/>
      <path id="body-2" data-name="body" d="M290.651,1874.95s125.287,88.642,37.774,211.455-212.032-70.352-212.032-70.352l-3.493-40.835s32.592-80.006,107.985-100.269S290.651,1874.95,290.651,1874.95Z" transform="translate(1829.328 -2096.287)" fill="#763ee5"/>
      <path id="head-2" data-name="head" d="M204.5,1889.163s-29.149-.885-32.108-29.308,1.154-50.83,33.942-52.219c15.705-.665,29.035,10,34.178,22.289,5.393,12.885,1.89,27.52,1.89,27.52s12.611-11.732,17.522,0-13.562,13.011-13.562,13.011v39.033s-6.066,30.264-30,28.523S204.5,1901,204.5,1901Z" transform="translate(1875.38 -2128.123)" fill="#fff"/>
      <path id="another-arm-line-2" data-name="another-arm-line" d="M245.3,1915.654s-19.414,25.131-10.81,53.812" transform="translate(1778.208 -2074.184)" fill="none" stroke="#000" stroke-linecap="round" stroke-width="3"/>
      <path id="arm-line-2" data-name="arm-line" d="M309.992,1941.063s-14.143,24.891-21.5,45.256-7.92,36.2-7.92,36.2-51.753-73.661-125.86-75.359" transform="translate(1812.25 -2061.246)" fill="none" stroke="#000" stroke-linecap="round" stroke-width="3"/>
      <path id="neck-line-2" data-name="neck-line" d="M-154.582,1920.226s-8.715,33.87-31.691,29.116-10.87-37.464-10.87-37.464" transform="translate(2276.458 -2139.183)" fill="none" stroke="#000" stroke-linecap="round" stroke-width="3"/>
      <path id="hand-2" data-name="hand" d="M320.964,1999.6c6.4-.906,14.827-6.119,18.8-13.647,4.624-8.762,3.862-20.21,3.862-20.21l-19.47-17.816s-11.413-18.5-20.788-17.266,1.514,4.882,3.566,11.973c1.52,5.258,0,8.3,0,8.3a129.338,129.338,0,0,1-12.316-10.005,121.678,121.678,0,0,1-12.343-14.062c-2.882-3.649-13.075-5.127-9.406,3.794s21.749,27.545,21.749,27.545-17.015-15.307-19.9-17.74-14.054-17.7-14.735-9,27.1,34.276,27.1,34.276-22.4-20.157-27.1-23.241-5.713,3.993-1.285,10.617,21.524,17.421,21.524,17.421a58.689,58.689,0,0,1-11.957-6.413c-4.908-3.689-11.379-3.6-9.166,0,1.67,2.72,10.672,11.985,23.172,18.624,6.882,3.656,16.167,4.47,22.99,7.86A121.9,121.9,0,0,1,320.964,1999.6Z" transform="translate(1626.267 -2078.831)" fill="#fff" stroke="#000" stroke-linecap="round" stroke-width="3"/>
      <path id="Path_79-2" data-name="Path 79" d="M-73.626,1962.825" transform="translate(1996.444 -2110.089)" fill="none" stroke="#707070" stroke-width="1"/>
    </g>
    <path id="Path_107" data-name="Path 107" d="M451.049,3289.734H864.942l10.043-44.068,15.823,77.355,17.581-91.42,12.916,91.42,11.5-65.181,8.79,48.685,17.581-82.494,16.228,114.95,6.762-49.247h394.758" transform="translate(31 -2457.5)" fill="none" stroke="rgba(193,141,255,0.63)" stroke-linecap="round" stroke-width="3"/>
    <path id="Path_108" data-name="Path 108" d="M513.256,3500.553l52.423-21.051" transform="matrix(0.998, -0.07, 0.07, 0.998, -209.938, -2502.786)" fill="none" stroke="#000" stroke-width="1"/>
    <path id="Path_112" data-name="Path 112" d="M513.256,3500.553l52.423-21.051" transform="matrix(0.998, -0.07, 0.07, 0.998, -197.938, -2504.786)" fill="none" stroke="#000" stroke-width="1"/>
    <path id="Path_109" data-name="Path 109" d="M513.256,3500.553l74.232-21.051" transform="translate(19 -2519)" fill="none" stroke="#000" stroke-width="1"/>
    <path id="Path_110" data-name="Path 110" d="M513.256,3500.553l74.232-21.051" transform="translate(7 -2508)" fill="none" stroke="#000" stroke-width="1"/>
    <path id="Path_113" data-name="Path 113" d="M513.256,3500.553l51.459-21.051" transform="translate(54 -2490)" fill="none" stroke="#000" stroke-width="1"/>
    <path id="Path_114" data-name="Path 114" d="M513.256,3500.553l51.459-21.051" transform="translate(46 -2482)" fill="none" stroke="#000" stroke-width="1"/>
    <path id="Path_115" data-name="Path 115" d="M513.256,3500.553l51.459-21.051" transform="translate(53 -2479)" fill="none" stroke="#000" stroke-width="1"/>
  </g>
</svg>
